<?xml version="1.0" encoding="UTF-8" standalone="no"?>
<!-- Created with Inkscape (http://www.inkscape.org/) -->

<svg
   width="200"
   height="265.72501"
   viewBox="0 0 52.916665 70.306408"
   version="1.1"
   id="svg1"
   sodipodi:docname="logo-plain.svg"
   inkscape:version="1.3.2 (091e20e, 2023-11-25, custom)"
   xmlns:inkscape="http://www.inkscape.org/namespaces/inkscape"
   xmlns:sodipodi="http://sodipodi.sourceforge.net/DTD/sodipodi-0.dtd"
   xmlns="http://www.w3.org/2000/svg"
   xmlns:svg="http://www.w3.org/2000/svg">
  <sodipodi:namedview
     id="namedview1"
     pagecolor="#505050"
     bordercolor="#ffffff"
     borderopacity="1"
     inkscape:showpageshadow="0"
     inkscape:pageopacity="0"
     inkscape:pagecheckerboard="1"
     inkscape:deskcolor="#505050"
     inkscape:document-units="px"
     inkscape:zoom="2.9757807"
     inkscape:cx="187.68184"
     inkscape:cy="124.84119"
     inkscape:window-width="3440"
     inkscape:window-height="1377"
     inkscape:window-x="-8"
     inkscape:window-y="-8"
     inkscape:window-maximized="1"
     inkscape:current-layer="layer1" />
  <defs
     id="defs1" />
  <g
     inkscape:label="Layer 1"
     inkscape:groupmode="layer"
     id="layer1">
    <path
       id="rect6"
       style="fill:#ffffff;stroke:#ffffff;stroke-width:0.748558;stroke-dasharray:none"
       d="m 8.378322,0.37424952 c -4.4342753,0 -8.00404075,3.56978578 -8.00404075,8.00407188 V 61.928078 c 0,4.434291 3.56976545,8.004079 8.00404075,8.004079 H 44.53835 c 4.434275,0 8.004041,-3.569788 8.004041,-8.004079 V 8.3783214 c 0,-4.4342861 -3.569766,-8.00407188 -8.004041,-8.00407188 z M 5.9415587,36.225448 h 9.2828503 c 3.852358,0 6.598808,0.5714 8.239176,1.714691 1.640357,1.14328 2.460521,2.783624 2.460521,4.92107 0,1.168144 -0.211064,2.162691 -0.633583,2.982877 -0.422518,0.795333 -0.957242,1.429055 -1.603438,1.901283 -0.621351,0.472229 -1.267635,0.795362 -1.938694,0.969341 v 0.186083 c 0.720767,0.173979 1.441936,0.472502 2.162703,0.895023 0.720748,0.42252 1.317285,1.056232 1.789511,1.901273 0.497081,0.820186 0.745338,1.938368 0.745338,3.355044 0,1.615509 -0.410072,3.007585 -1.230256,4.175729 -0.820183,1.168135 -1.988108,2.062688 -3.504205,2.684042 -1.516087,0.621353 -3.318251,0.932431 -5.405981,0.932431 H 5.9415587 Z m 7.1949923,5.442909 v 4.771906 h 2.162694 c 1.192994,0 2.025223,-0.248268 2.49744,-0.74534 0.497081,-0.497083 0.745847,-1.093612 0.745847,-1.789528 0,-0.72077 -0.273385,-1.267541 -0.820174,-1.640353 -0.546789,-0.397666 -1.404136,-0.596685 -2.572277,-0.596685 z m 20.492251,3.42989 h 3.08198 v 17.746088 h -3.75298 V 52.579459 51.535282 c 0.01654,-0.414232 0.03298,-0.84459 0.04951,-1.291965 0.01654,-0.447374 0.03346,-0.845392 0.0501,-1.19335 -0.08288,0.09942 -0.26544,0.282016 -0.547122,0.547123 -0.265107,0.248542 -0.513364,0.47217 -0.745338,0.671003 l -2.038306,1.640363 -1.814296,-2.261814 z m 10.26484,0 h 3.08198 V 62.844335 H 43.222631 V 52.579459 51.535282 c 0.01654,-0.414232 0.03298,-0.84459 0.04951,-1.291965 0.01654,-0.447374 0.03298,-0.845392 0.04951,-1.19335 -0.08288,0.09942 -0.26496,0.282016 -0.546613,0.547123 -0.265116,0.248542 -0.513882,0.47217 -0.745846,0.671003 l -2.037798,1.640363 -1.814296,-2.261814 z m -30.757091,6.598842 v 5.592082 h 2.535368 c 1.242692,0 2.112613,-0.260831 2.609694,-0.782758 0.497081,-0.546791 0.745338,-1.23026 0.745338,-2.050447 0,-0.472228 -0.111569,-0.919505 -0.335256,-1.342025 -0.198832,-0.422521 -0.559157,-0.758218 -1.081092,-1.006759 -0.497071,-0.273396 -1.193112,-0.410093 -2.087858,-0.410093 z" />
  </g>
</svg>
